<?xml version="1.0" standalone="no"?>
<!DOCTYPE svg PUBLIC "-//W3C//DTD SVG 20010904//EN"
 "http://www.w3.org/TR/2001/REC-SVG-20010904/DTD/svg10.dtd">
<svg version="1.0" xmlns="http://www.w3.org/2000/svg"
 width="740.000000pt" height="740.000000pt" viewBox="0 0 740.000000 740.000000"
 preserveAspectRatio="xMidYMid meet">
<metadata>
Created by potrace 1.14, written by Peter Selinger 2001-2017
</metadata>
<g transform="translate(0.000000,740.000000) scale(0.100000,-0.100000)"
fill="#000000" stroke="none">
<path d="M4642 6730 c-101 -91 -165 -166 -196 -227 -9 -18 -22 -33 -29 -33 -6
0 -50 -29 -97 -64 -92 -69 -177 -167 -225 -259 -17 -31 -34 -57 -40 -57 -14 0
-67 33 -186 114 -107 72 -200 116 -247 116 -18 0 -49 15 -82 40 -154 115 -307
132 -355 40 -8 -16 -15 -40 -15 -54 0 -22 -7 -27 -57 -41 -115 -32 -123 -36
-123 -55 0 -23 40 -52 117 -86 32 -14 68 -31 81 -37 39 -19 71 -87 92 -195 10
-56 24 -110 30 -122 9 -17 8 -20 -10 -20 -18 0 -88 34 -341 168 -53 28 -116
53 -141 57 -124 19 -227 -74 -203 -183 8 -39 66 -106 118 -137 23 -13 98 -44
167 -68 130 -46 250 -101 250 -115 0 -19 -115 -35 -276 -40 -193 -5 -226 -15
-272 -82 -44 -65 -14 -166 61 -208 52 -28 184 -22 271 11 95 37 100 36 125
-25 12 -29 34 -70 48 -90 l26 -38 -27 -38 c-43 -62 -100 -117 -234 -223 -204
-163 -256 -220 -293 -326 -20 -58 -22 -139 -3 -202 l7 -25 -46 27 c-26 16 -47
24 -48 20 -13 -99 84 -199 233 -239 67 -17 239 -18 338 0 77 14 239 70 323
113 64 32 187 76 194 69 10 -10 -81 -119 -149 -177 -147 -126 -369 -251 -668
-374 -261 -107 -368 -154 -472 -206 -54 -27 -99 -49 -100 -49 -2 0 -3 80 -3
177 0 256 -36 406 -134 556 -159 244 -501 374 -845 322 -180 -27 -324 -79
-448 -161 -86 -57 -128 -112 -128 -166 0 -68 24 -70 295 -28 116 18 298 -6
388 -51 95 -49 204 -150 248 -232 33 -60 34 -66 34 -172 0 -87 -6 -132 -28
-218 -45 -177 -62 -309 -48 -395 12 -81 27 -115 72 -167 l31 -35 -24 -89 -23
-90 -144 -91 c-330 -209 -455 -340 -491 -514 -13 -64 -7 -134 16 -178 19 -36
32 -35 47 1 l13 30 33 -71 c25 -54 52 -90 114 -152 69 -68 107 -96 237 -169
85 -49 167 -98 182 -110 l27 -22 -152 -1 c-84 -1 -172 -6 -196 -12 -38 -9 -48
-8 -70 8 -45 31 -153 72 -208 77 -62 7 -123 -13 -167 -53 -28 -27 -65 -96 -66
-124 0 -8 -23 -35 -51 -59 -57 -49 -99 -125 -99 -182 0 -113 68 -210 171 -242
52 -17 56 -20 67 -62 16 -60 74 -118 142 -140 39 -13 74 -16 140 -13 76 3 98
9 162 40 63 31 87 36 169 42 295 19 655 137 794 259 166 146 150 320 -56 607
-83 117 -152 247 -163 310 l-6 35 77 28 c197 69 538 140 813 169 161 17 567
17 685 0 170 -24 265 -44 265 -56 0 -32 -87 -150 -198 -268 -159 -168 -187
-220 -180 -338 4 -66 9 -85 37 -128 59 -92 183 -170 349 -218 174 -50 246 -58
562 -59 183 -1 312 -6 340 -13 63 -16 218 -15 274 2 108 33 161 110 154 222
-4 62 -3 65 27 85 83 58 120 154 95 249 -15 58 -96 139 -159 160 -28 9 -54 28
-75 53 -50 63 -106 90 -195 95 -68 4 -84 1 -132 -21 -30 -15 -71 -42 -92 -62
-34 -32 -42 -35 -100 -35 l-62 0 45 27 c134 79 239 199 269 306 l14 47 23 -25
c15 -16 29 -23 39 -18 14 5 16 18 13 77 -8 159 -122 288 -344 386 -97 43 -195
100 -243 140 l-34 29 81 99 c325 398 509 833 529 1255 l6 127 36 10 c135 35
255 45 391 30 304 -32 485 -30 610 6 158 46 309 201 328 336 l5 43 -36 -28
c-42 -32 -43 -29 -22 58 26 107 20 207 -24 374 l-39 149 30 29 c16 15 52 58
79 94 l50 67 42 -9 c23 -6 71 -20 107 -32 96 -32 191 -30 252 5 73 44 109 141
75 207 -24 49 -69 64 -211 72 -88 4 -146 12 -176 24 -49 20 -117 64 -124 81
-2 6 61 43 141 83 167 85 230 131 277 204 93 142 57 328 -67 351 -72 13 -126
-27 -317 -240 -30 -33 -78 -77 -106 -97 -56 -40 -169 -87 -210 -87 -25 0 -26
2 -20 33 16 80 64 155 181 282 131 142 163 196 146 248 -17 49 -62 71 -143 70
-99 -2 -194 -51 -285 -147 -87 -91 -123 -160 -167 -321 -80 -286 -79 -285
-128 -285 l-32 0 32 33 c18 18 32 37 32 41 0 12 -76 -2 -114 -20 -17 -9 -43
-28 -58 -42 -15 -14 -29 -24 -31 -21 -2 2 -15 29 -30 59 -36 76 -122 177 -190
224 -31 22 -55 41 -53 43 2 2 27 -5 56 -16 l53 -20 -34 35 c-60 63 -112 87
-193 89 -103 3 -116 9 -116 50 l0 34 58 3 57 3 -62 19 c-54 17 -63 23 -68 48
-4 16 -5 31 -3 33 6 7 138 24 188 26 l45 1 -35 9 c-19 4 -78 13 -130 18 -94
11 -95 11 -132 53 -21 24 -45 58 -54 77 -15 30 -15 38 1 95 10 33 18 79 19
101 2 69 -27 60 -142 -45z m128 65 c0 -2 -8 -26 -19 -52 -40 -103 -36 -163 18
-239 l30 -41 -105 -26 c-57 -15 -139 -42 -181 -62 -42 -19 -78 -34 -80 -32 -2
2 5 25 14 52 14 38 31 57 80 93 34 26 60 48 58 50 -2 3 -18 -1 -36 -7 -18 -6
-34 -9 -37 -7 -8 9 48 79 141 176 82 86 117 114 117 95z m1471 -295 c43 -24
13 -87 -95 -200 -138 -143 -186 -227 -194 -340 l-4 -67 62 8 c167 23 224 58
410 249 142 146 167 162 219 140 40 -16 55 -57 49 -134 -10 -126 -65 -190
-257 -306 -57 -34 -119 -76 -138 -94 -19 -17 -41 -35 -49 -39 -15 -9 -20 -29
-5 -24 5 1 26 -16 47 -37 59 -60 123 -85 271 -102 70 -8 136 -17 145 -20 31
-9 48 -34 48 -69 0 -44 -50 -98 -108 -116 -39 -11 -56 -10 -168 15 -124 28
-187 29 -224 6 -12 -8 -11 -10 8 -10 30 0 28 -8 -18 -62 -43 -49 -165 -132
-214 -144 -26 -6 -27 -5 -17 14 6 11 26 32 43 47 l33 27 -46 -6 c-26 -3 -72
-16 -103 -30 -31 -14 -56 -21 -56 -16 0 5 5 12 10 15 6 3 10 12 10 20 0 10 -8
9 -37 -5 -63 -30 -99 -33 -156 -15 -54 17 -128 62 -134 82 -5 14 98 88 201
144 l79 43 34 -39 c19 -22 36 -49 39 -62 4 -13 10 -21 14 -18 11 7 -8 74 -31
106 l-18 26 54 19 c30 10 55 21 55 25 0 4 -15 19 -32 33 l-33 26 90 1 c107 2
72 16 -43 18 -65 1 -132 20 -132 37 0 3 20 2 44 -1 66 -10 70 10 12 60 l-47
42 61 27 c33 15 84 36 113 47 51 19 51 19 12 13 -22 -3 -79 -21 -126 -39 l-85
-35 -52 20 c-29 11 -71 20 -93 20 -38 0 -41 2 -36 23 11 47 119 325 154 396
89 180 330 336 434 281z m-1871 -95 c0 -2 -21 -28 -46 -57 -26 -28 -59 -79
-75 -112 -50 -111 -49 -113 38 -44 121 98 322 193 450 213 21 3 0 -7 -47 -23
-115 -39 -284 -129 -305 -162 -10 -16 -1 -13 97 36 74 38 108 48 171 56 80 8
114 5 61 -7 -77 -17 -154 -54 -154 -73 0 -5 43 -12 95 -16 99 -7 208 -25 284
-48 35 -11 49 -22 66 -53 26 -45 45 -56 45 -26 0 29 15 26 70 -14 36 -27 47
-40 43 -55 -5 -18 -7 -18 -33 -5 -19 10 -30 11 -38 3 -7 -7 -19 -3 -40 12 -16
12 -40 20 -53 18 -20 -2 -24 -9 -24 -35 0 -23 -4 -33 -15 -33 -9 0 -21 -5 -27
-11 -9 -9 -23 -7 -55 6 -24 9 -73 18 -111 20 -60 3 -69 1 -79 -19 -36 -66 3
-188 103 -321 50 -65 51 -68 25 -63 -44 9 -24 -13 32 -34 60 -23 166 -113 120
-104 -79 17 -198 28 -320 29 l-137 2 -11 43 c-14 55 -26 54 -22 -3 4 -42 2
-45 -21 -45 -13 0 -37 -2 -53 -5 -27 -5 -31 -1 -57 54 -41 89 -119 140 -215
141 -25 0 -81 -14 -135 -34 -155 -58 -180 -59 -218 -5 l-22 31 43 -7 c38 -6
41 -5 36 11 -14 50 -16 71 -8 94 9 23 9 23 22 -15 13 -41 36 -75 51 -75 5 0
12 12 15 28 4 15 15 45 25 66 l17 39 17 -33 c28 -53 29 -25 1 35 -40 87 -128
188 -211 241 -31 19 -48 38 -56 63 -6 20 -26 64 -45 99 -18 34 -31 62 -29 62
7 0 135 -67 240 -126 127 -71 181 -96 248 -114 63 -17 70 -7 12 19 l-46 20 20
38 c31 62 109 162 182 235 64 63 79 75 79 63z m-945 -45 c78 -37 156 -122 203
-220 42 -88 52 -129 72 -325 13 -132 26 -173 64 -211 49 -49 98 -52 221 -14
105 32 142 33 209 5 46 -20 111 -79 130 -119 23 -48 21 -111 -4 -136 -27 -27
-56 -25 -126 6 -65 28 -142 40 -198 30 -53 -10 -124 -73 -203 -178 -39 -51
-95 -113 -126 -137 -59 -47 -158 -104 -166 -96 -2 3 6 19 19 37 20 28 21 30 4
23 -59 -25 -131 -45 -162 -45 l-35 0 27 26 c14 15 26 29 26 33 0 3 -35 6 -78
6 -71 0 -82 3 -115 28 -21 16 -49 52 -63 80 -15 29 -33 60 -42 70 -19 21 -72
22 -162 2 -36 -8 -94 -14 -130 -15 -54 0 -72 5 -102 25 -58 40 -66 121 -15
159 23 17 48 21 160 27 146 7 163 10 257 45 99 37 101 39 60 74 -58 50 -139
94 -255 139 -135 52 -200 96 -227 157 -24 55 -21 71 15 98 21 15 43 21 85 21
52 0 76 -9 247 -92 229 -110 263 -120 385 -113 l45 2 -42 10 c-47 10 -42 -1
-68 158 -27 157 -75 221 -202 269 -32 12 -69 30 -81 40 l-24 17 77 23 c43 12
78 21 79 19 46 -72 46 -72 1 -65 -19 3 -35 2 -35 -3 0 -5 22 -12 50 -16 46 -6
54 -11 100 -68 88 -107 148 -264 151 -393 l1 -38 10 35 c15 51 3 176 -23 245
-26 70 -71 141 -129 205 -68 76 -98 158 -67 189 19 20 123 9 182 -19z m1419 4
c9 -25 4 -26 -65 -18 l-64 8 45 12 c63 17 77 16 84 -2z m-461 -36 c-5 -25 -73
-90 -73 -70 0 11 71 105 75 100 2 -2 1 -15 -2 -30z m471 -46 c3 -5 3 -17 0
-28 -5 -19 -10 -20 -77 -12 -40 5 -79 10 -87 11 -11 3 97 28 152 36 4 1 9 -3
12 -7z m229 -311 l37 -35 -6 32 c-4 18 -3 32 1 32 18 0 45 -34 45 -56 0 -40
38 -126 104 -236 l64 -107 -36 -12 c-21 -6 -52 -20 -70 -31 -18 -11 -34 -19
-36 -17 -1 2 -8 33 -15 69 -23 118 -83 216 -180 293 -20 16 -36 34 -36 40 0
13 30 14 59 2 19 -8 19 -8 1 22 -10 17 -15 38 -11 48 7 20 15 16 79 -44z
m-1216 -57 l73 -71 -16 -39 c-10 -22 -20 -52 -24 -69 l-7 -30 -17 37 c-9 21
-16 51 -16 69 0 20 -4 29 -12 27 -20 -7 -48 -70 -48 -109 0 -33 -2 -36 -25
-31 -32 6 -33 14 -37 184 l-4 136 30 -16 c17 -9 63 -49 103 -88z m1452 -34
c44 -65 76 -143 66 -161 -6 -9 -12 -7 -22 6 -12 17 -13 15 -13 -22 0 -26 7
-50 21 -67 l20 -26 -23 0 c-20 0 -34 17 -80 99 -81 144 -107 224 -99 306 2 15
90 -76 130 -135z m-432 55 c117 -59 220 -186 229 -282 4 -39 -17 -45 -34 -10
-10 20 -11 18 -11 -18 -1 -24 7 -54 20 -74 11 -18 19 -34 17 -35 -2 0 -18 -9
-36 -19 -34 -17 -34 -17 -65 9 -17 14 -54 36 -83 49 -60 27 -100 74 -165 199
-34 64 -43 93 -47 148 l-5 68 55 0 c43 0 71 -8 125 -35z m640 -123 c-29 -30
-37 -53 -12 -32 11 9 34 10 82 5 63 -7 193 -40 193 -50 0 -2 -20 -16 -44 -30
l-45 -26 -20 20 c-33 33 -95 28 -163 -12 -87 -53 -84 -54 -96 16 -5 34 -8 66
-5 70 10 16 98 67 117 67 18 0 17 -3 -7 -28z m343 -114 l35 -22 -55 -7 c-30
-3 -69 -13 -85 -22 l-30 -17 28 6 c31 7 77 -2 77 -15 0 -5 -17 -12 -37 -15
-21 -4 -50 -9 -65 -12 -26 -5 -28 -3 -28 30 0 32 5 39 48 66 57 36 67 36 112
8z m-219 -17 c20 -16 21 -21 10 -35 -9 -10 -10 -16 -2 -16 14 0 15 -47 1 -55
-6 -4 -8 -11 -4 -16 19 -32 -70 -159 -111 -159 -8 0 -33 -18 -57 -40 -51 -48
-150 -99 -204 -107 -22 -3 -55 -1 -74 5 l-35 9 25 12 c22 10 19 10 -19 5 -59
-8 -125 20 -117 50 3 12 6 34 6 50 0 25 3 27 25 22 63 -15 75 -14 26 3 -57 19
-84 47 -60 62 8 5 38 14 68 20 30 6 71 22 90 35 20 13 61 34 92 48 l57 25 -5
-37 c-7 -53 18 -73 102 -79 65 -6 65 -6 100 31 36 39 55 98 38 124 -5 9 -25
21 -44 28 l-34 11 35 11 c51 15 65 14 91 -7z m-97 -56 c11 -29 -71 -85 -124
-85 -23 0 -27 27 -7 53 30 40 119 62 131 32z m370 -61 l39 -27 -74 -21 c-162
-47 -358 -180 -443 -299 -25 -35 -46 -69 -46 -74 0 -5 -26 -15 -57 -21 -32 -6
-69 -14 -82 -18 -21 -6 -23 -5 -16 17 14 46 37 89 49 89 33 0 121 55 173 108
34 35 73 64 94 71 46 15 102 73 128 133 19 45 21 47 73 52 77 9 112 13 118 15
3 0 23 -11 44 -25z m-1473 -199 c-19 -43 -19 -45 -1 -35 18 10 60 85 60 108 0
15 149 16 315 1 177 -15 189 -19 193 -55 2 -21 -4 -36 -18 -49 -19 -17 -44
-20 -223 -26 -232 -9 -289 -20 -389 -80 -74 -43 -94 -73 -27 -39 23 12 43 20
45 17 2 -2 -7 -17 -21 -33 -14 -16 -37 -54 -52 -85 l-26 -55 -46 46 c-98 98
-217 105 -362 22 -62 -36 -73 -40 -100 -30 -16 6 -29 13 -27 17 3 7 49 72 116
163 74 102 135 120 247 72 90 -38 132 -47 172 -33 43 14 62 43 70 107 l6 51
41 3 c36 3 41 0 44 -19 2 -12 -6 -43 -17 -68z m174 -162 c-4 -32 -12 -63 -19
-70 -6 -6 -40 -23 -76 -38 -36 -15 -96 -43 -134 -62 -37 -19 -70 -32 -72 -30
-5 5 42 88 87 154 48 69 103 99 187 102 l33 1 -6 -57z m1020 -2 c22 -7 45 -14
51 -16 13 -4 -1 -124 -15 -138 -6 -6 -21 -1 -39 11 -37 27 -116 58 -169 67
-24 4 -43 10 -43 14 0 4 23 33 51 64 l50 57 37 -24 c20 -12 55 -28 77 -35z
m349 -31 c-35 -53 -25 -65 42 -50 27 6 59 18 71 25 21 14 22 13 28 -33 3 -26
13 -94 22 -152 20 -137 20 -305 -1 -394 -9 -38 -15 -71 -13 -73 2 -2 24 12 48
31 24 19 45 33 47 31 3 -2 -7 -24 -22 -49 -42 -72 -125 -128 -266 -180 l-85
-31 -335 -1 c-341 -1 -449 -11 -579 -50 -25 -7 -46 -12 -47 -11 -1 1 -7 39
-14 85 -19 143 -27 137 -35 -26 -6 -143 -15 -182 -29 -129 -3 13 -16 29 -30
36 -43 23 -72 7 -123 -71 -27 -40 -53 -73 -59 -75 -16 -5 -24 44 -24 139 0
101 -17 144 -62 156 -78 21 -124 -15 -274 -211 -183 -238 -272 -343 -400 -469
-155 -153 -282 -251 -604 -466 -363 -243 -459 -323 -552 -463 -66 -100 -90
-172 -96 -285 -5 -111 10 -183 54 -263 30 -54 30 -61 -1 -61 -48 0 -271 -52
-386 -90 -170 -56 -324 -137 -439 -229 -35 -28 -20 -26 60 9 38 16 74 30 82
30 8 0 19 -28 31 -77 19 -87 56 -172 111 -252 20 -29 36 -55 36 -57 0 -2 -13
-4 -29 -4 -33 0 -61 -30 -61 -66 0 -12 7 -39 16 -60 l16 -39 -46 43 c-55 51
-137 92 -183 92 -41 0 -43 -17 -7 -59 l25 -30 -53 15 c-29 9 -75 27 -102 41
l-48 24 4 -40 4 -41 -51 49 c-51 49 -213 181 -319 260 -117 87 -219 209 -263
316 -10 25 -21 45 -24 45 -4 0 -14 -20 -23 -45 -25 -65 -40 -69 -34 -8 14 146
151 303 445 510 205 144 297 223 360 307 49 66 49 85 0 39 -40 -38 -119 -95
-124 -89 -14 13 93 187 163 264 74 84 270 225 439 318 85 46 382 194 391 194
3 0 107 50 230 110 143 70 269 141 348 194 148 100 161 111 252 202 63 62 154
194 154 222 0 17 201 56 340 66 80 6 82 6 45 16 -120 31 -397 -14 -620 -99
-109 -42 -238 -82 -325 -101 -84 -18 -306 -25 -372 -11 -58 12 -129 55 -147
89 -10 19 -10 19 26 1 51 -26 67 -25 58 4 -14 46 -17 136 -5 173 36 112 144
243 318 387 85 69 172 176 194 235 10 26 17 32 33 28 11 -3 47 -6 80 -6 l60
-1 -39 -20 c-30 -16 -36 -23 -25 -30 22 -14 139 -10 184 6 47 17 52 15 25 -10
-11 -10 -20 -22 -20 -27 0 -11 43 -10 74 2 14 5 26 8 26 6 0 -2 -20 -42 -44
-89 -52 -103 -76 -193 -75 -284 l0 -68 28 85 c30 93 77 213 95 243 6 10 49 37
96 58 47 22 117 60 156 84 99 62 191 104 244 111 57 7 140 -22 193 -70 l38
-34 -55 -32 c-76 -43 -71 -58 5 -19 49 24 64 28 71 17 24 -36 68 -130 89 -193
21 -64 24 -67 29 -40 10 53 24 8 24 -80 1 -97 22 -145 78 -183 76 -50 217 -36
312 31 25 17 47 22 128 24 109 3 179 25 211 69 10 14 23 54 29 89 8 45 15 65
25 65 8 0 73 -19 144 -42 136 -45 144 -52 113 -96 -28 -40 -5 -37 36 3 34 33
46 39 75 36 137 -11 257 112 224 232 -14 52 -30 83 -64 121 -15 18 -23 36 -20
45 4 9 9 46 12 84 6 65 7 67 34 67 15 0 40 5 56 10 l28 11 -30 -25 c-16 -13
-27 -27 -24 -30 3 -3 50 12 105 33 54 22 102 40 107 40 4 1 -5 -17 -19 -39z
m-1410 -137 c-55 -170 -68 -298 -38 -374 11 -25 33 -52 57 -70 64 -46 108 -41
337 40 63 23 125 41 137 41 12 0 25 5 28 10 4 6 1 9 -7 8 -8 -2 -13 7 -13 22
0 23 4 25 45 26 25 1 48 0 51 -2 4 -2 0 -30 -7 -61 -21 -94 -90 -136 -239
-147 -33 -2 -98 -17 -145 -32 -58 -18 -108 -27 -157 -28 -66 -1 -74 1 -102 28
-37 36 -47 65 -60 181 -11 93 -28 165 -38 165 -3 0 -2 -20 1 -45 6 -38 5 -44
-8 -39 -9 3 -18 17 -21 30 -3 13 -8 36 -11 52 -3 15 -17 53 -31 85 -14 31 -24
59 -22 60 13 11 227 96 241 96 16 1 16 -2 2 -46z m-816 -15 c-32 -24 -149 -88
-160 -88 -20 0 30 62 76 95 42 30 50 32 77 22 l29 -12 -22 -17z m-2206 -624
c71 -16 71 -17 49 -34 l-23 -17 36 -21 c31 -18 35 -25 27 -41 -6 -10 -41 -30
-77 -45 -129 -49 -179 -106 -94 -106 56 0 62 -19 22 -78 -7 -11 -20 -8 -63 16
-100 56 -171 73 -324 79 -133 5 -168 2 -335 -28 -75 -14 -120 -7 -120 19 1 53
154 159 310 214 151 54 447 75 592 42z m208 -83 c140 -84 220 -196 274 -384
44 -152 57 -317 35 -474 -14 -110 -14 -109 -81 -155 -136 -91 -240 -201 -311
-328 l-31 -54 -19 59 c-28 91 -24 212 12 390 65 325 49 457 -74 601 l-44 51
19 39 c11 21 20 44 20 50 0 23 -31 44 -63 44 l-32 0 25 20 c14 11 38 22 55 26
120 27 171 92 105 133 -16 10 -27 21 -23 25 14 14 66 -4 133 -43z m2777 -18
c14 -20 18 -52 21 -137 2 -60 8 -116 14 -123 27 -33 62 -8 121 82 23 37 39 51
59 53 24 3 28 -1 37 -35 31 -126 20 -214 -57 -428 -301 -838 -751 -1322 -1415
-1521 -64 -19 -94 -23 -137 -18 -51 6 -349 -10 -431 -23 -37 -5 -37 -5 -68 58
-38 78 -52 170 -40 259 12 82 25 120 68 195 96 168 227 289 571 520 464 313
681 510 934 850 156 209 193 253 233 274 51 27 69 26 90 -6z m-18 -1797 c124
-69 176 -107 235 -172 46 -52 106 -161 106 -191 -1 -10 -11 1 -24 25 l-22 44
-12 -51 c-28 -121 -117 -211 -345 -347 -142 -86 -209 -135 -273 -200 l-51 -51
-10 28 c-14 36 -38 37 -124 5 -35 -13 -80 -27 -99 -31 l-35 -7 38 39 c41 43
46 57 20 50 -10 -3 -40 -8 -66 -12 l-49 -6 22 29 c18 24 20 34 11 50 -11 21
-73 38 -93 26 -13 -8 -5 6 28 51 31 43 74 130 90 187 8 26 20 48 27 48 7 0 50
-14 97 -30 46 -17 78 -24 70 -16 -19 16 -179 81 -280 112 -82 25 -316 74 -358
74 -16 1 20 18 89 44 140 52 295 131 409 207 87 59 253 193 303 247 l29 30 81
-62 c45 -34 129 -88 186 -120z m408 -722 c26 -9 54 -22 61 -29 11 -10 6 -13
-29 -19 -48 -8 -149 -58 -175 -87 -14 -15 -2 -12 51 13 57 26 82 32 140 32 61
1 79 -4 140 -34 83 -41 124 -93 132 -163 6 -49 -20 -119 -56 -151 -18 -16 -21
-15 -68 32 -40 40 -61 52 -116 67 -103 28 -206 6 -261 -54 -23 -25 -15 -27 27
-4 23 13 56 17 122 17 102 0 133 -11 183 -68 36 -41 47 -85 39 -159 -4 -44
-10 -56 -41 -83 -22 -19 -59 -37 -88 -45 -66 -15 -235 -5 -343 20 -83 20 -106
20 -62 0 49 -22 17 -31 -87 -24 -277 18 -597 88 -765 167 -207 98 -233 264
-68 441 50 54 55 57 101 57 39 0 47 -3 44 -17 -3 -15 -49 -54 -81 -67 -29 -11
22 -26 81 -24 34 2 62 0 62 -4 0 -5 -3 -8 -8 -8 -15 0 -62 -51 -56 -61 10 -17
103 0 189 36 86 35 105 35 105 1 0 -12 7 -31 15 -42 15 -19 15 -19 26 1 22 38
99 105 151 131 46 24 68 28 173 32 119 4 120 5 162 39 90 72 195 92 300 57z
m-2762 -350 c41 -11 95 -143 95 -235 0 -34 -8 -75 -19 -101 -46 -107 -240
-228 -507 -317 -128 -43 -317 -85 -346 -78 -10 3 -66 -11 -125 -30 -94 -31
-117 -35 -184 -31 -84 5 -147 33 -182 80 -26 35 -27 121 -1 174 43 88 143 128
299 122 47 -2 85 -2 85 -1 0 2 -18 12 -41 23 -93 48 -225 42 -309 -14 -43 -28
-100 -107 -100 -138 0 -28 -26 -32 -63 -9 -80 49 -107 89 -107 157 0 69 33
131 85 158 59 31 228 34 350 8 50 -11 91 -19 93 -17 6 5 -144 67 -202 83 -33
9 -96 16 -138 17 -43 0 -78 1 -78 3 0 16 37 66 63 86 81 62 221 49 392 -37 33
-16 54 -23 48 -15 -11 12 13 16 175 26 180 11 188 11 214 -8 29 -21 39 -25 37
-12 -1 4 -1 17 0 30 l1 22 53 -27 c39 -20 67 -27 114 -27 64 -1 89 9 62 24
-34 19 -62 47 -53 53 15 9 88 -32 155 -85 33 -27 64 -48 69 -48 15 0 12 35 -5
77 -16 37 -19 75 -8 86 8 8 50 9 78 1z"/>
<path d="M4505 6193 c-32 -8 -64 -44 -71 -79 -7 -41 24 -150 61 -211 26 -42
55 -61 39 -25 -4 9 -9 53 -12 97 -3 70 -1 83 18 107 26 33 74 44 141 31 27 -6
49 -7 49 -3 0 13 -93 68 -135 79 -42 11 -56 12 -90 4z"/>
<path d="M4420 5897 c0 -44 49 -96 90 -97 23 0 22 1 -11 24 -20 14 -44 41 -53
60 -20 42 -26 45 -26 13z"/>
<path d="M3608 5431 c-104 -41 -159 -94 -184 -179 -16 -52 -17 -62 -6 -62 4 0
13 15 20 33 16 45 110 147 172 187 69 44 69 48 -2 21z"/>
<path d="M5316 5784 c-12 -32 -4 -104 13 -104 3 0 6 27 6 60 0 59 -7 75 -19
44z"/>
<path d="M5020 5711 c-23 -44 -2 -140 34 -154 11 -5 10 4 -6 39 -20 46 -18 94
4 122 8 8 6 12 -5 12 -9 0 -21 -9 -27 -19z"/>
<path d="M5897 4797 c-8 -59 -38 -117 -79 -156 -21 -20 -27 -31 -18 -31 23 0
70 34 90 66 23 34 34 110 22 143 -8 22 -9 20 -15 -22z"/>
<path d="M5937 4753 c-4 -3 -7 -15 -7 -26 0 -53 -83 -170 -146 -205 -29 -16
-12 -23 29 -11 77 21 120 84 133 194 7 53 5 62 -9 48z"/>
</g>
</svg>
